<svg width="646" height="73" viewBox="0 0 646 73" fill="none" xmlns="http://www.w3.org/2000/svg">
<path d="M47.1207 71.5L42.2207 52H18.3207L13.0207 71L0.220703 70L9.0207 45.7L22.4207 2.7L40.3207 1.4L53.2207 44.2L61.5207 69.3L47.1207 71.5ZM31.3207 14.4H30.0207L21.4207 41.4H39.2207L31.3207 14.4ZM233.587 72.1C226.187 72.1 219.954 69 214.887 62.8C209.82 56.6 207.287 49 207.287 40C207.287 29 210.32 19.7333 216.387 12.2C222.52 4.66666 230.02 0.899997 238.887 0.899997C242.354 0.899997 245.554 1.26666 248.487 1.99999C251.487 2.66666 253.62 3.36667 254.887 4.1L256.687 5.19999L249.887 19.1C248.354 17.7667 246.187 16.5333 243.387 15.4C240.587 14.2 238.054 13.6 235.787 13.6C231.187 13.6 227.487 15.5 224.687 19.3C221.954 23.1 220.587 28.5333 220.587 35.6C220.587 42.6 222.02 48.3667 224.887 52.9C227.754 57.3667 231.654 59.6 236.587 59.6C239.787 59.6 242.687 58.6 245.287 56.6C247.887 54.6 249.72 51.9333 250.787 48.6L259.087 53.4C256.887 59.2667 253.52 63.8667 248.987 67.2C244.454 70.4667 239.32 72.1 233.587 72.1ZM307.765 71.5L302.865 52H278.965L273.665 71L260.865 70L269.665 45.7L283.065 2.7L300.965 1.4L313.865 44.2L322.165 69.3L307.765 71.5ZM291.965 14.4H290.665L282.065 41.4H299.865L291.965 14.4ZM581.3 1.8L580 45L581.1 68.8L569.3 71.3L539.5 23.1V45L540.9 71H528.4L529.6 46.7L528.4 2.3L540.4 1.7L570.1 50.6L569.1 3.3L581.3 1.8ZM617.646 31.5H618.846L626.246 17.9L633.746 1.4L645.946 3.2L636.746 19.9L623.746 45.3L624.846 71H610.846L611.846 47L599.246 21.4L589.646 3.9L603.746 1.4L610.246 16.6L617.646 31.5Z" fill="#F85171"/>
<path d="M123.879 1.8L122.579 45L123.679 68.8L111.879 71.3L82.0785 23.1V45L83.4785 71H70.9785L72.1785 46.7L70.9785 2.3L82.9785 1.7L112.679 50.6L111.679 3.3L123.879 1.8Z" fill="#E445DE"/>
<path d="M160.224 31.5H161.424L168.824 17.9L176.324 1.4L188.524 3.2L179.324 19.9L166.324 45.3L167.424 71H153.424L154.424 47L141.824 21.4L132.224 3.9L146.324 1.4L152.824 16.6L160.224 31.5ZM455.646 71L456.846 46.7L455.646 4L469.846 1.49999L468.446 45L469.146 61.2L489.646 59.6L488.546 71H455.646ZM512.425 1.49999L511.025 45L512.225 71H498.225L499.425 46.7L498.225 4L512.425 1.49999Z" fill="#4C58BF"/>
<path d="M349.523 44.4H343.823V45L345.023 71H331.623L332.823 46.7L331.623 1.99999H353.323C359.723 1.99999 364.823 3.73333 368.623 7.2C372.423 10.6667 374.323 15.2667 374.323 21C374.323 25.3333 373.19 29.3 370.923 32.9C368.723 36.4333 365.723 39.2333 361.923 41.3L379.323 65.9L367.223 72.1L351.623 44.3C351.156 44.3667 350.456 44.4 349.523 44.4ZM349.723 12.1H344.823L344.123 34.7H350.923C354.256 34.7 356.823 33.6 358.623 31.4C360.49 29.2 361.423 26.0667 361.423 22C361.423 15.4 357.523 12.1 349.723 12.1ZM417.533 0.999995C425.4 0.999995 431.867 4 436.933 10C442.067 16 444.633 23.6333 444.633 32.9C444.633 44.6333 441.6 54.1 435.533 61.3C429.467 68.5 421.5 72.1 411.633 72.1C403.967 72.1 397.533 69.0333 392.333 62.9C387.133 56.7 384.533 49.0667 384.533 40C384.533 28.6667 387.633 19.3333 393.833 12C400.033 4.66666 407.933 0.999995 417.533 0.999995ZM431.033 38.5C431.033 21.6333 425.5 13.2 414.433 13.2C409.367 13.2 405.367 15.1 402.433 18.9C399.567 22.6333 398.133 28.2667 398.133 35.8C398.133 43.2667 399.667 49.4333 402.733 54.3C405.867 59.1 409.967 61.5 415.033 61.5C420.167 61.5 424.1 59.4667 426.833 55.4C429.633 51.2667 431.033 45.6333 431.033 38.5Z" fill="#E445DE"/>
</svg>
